<svg width="430" height="2866" viewBox="0 0 430 2866" fill="none" xmlns="http://www.w3.org/2000/svg">
<path d="M103.469 1565.74C45.312 1558.03 0 1529.5 0 1529.5V1931.92C0 1931.92 52.8075 1964.77 115.264 1975.56C191.464 1988.72 262.018 1906.72 337.132 1931.92C390.328 1949.77 430 1960.57 430 1960.57V1552.2C430 1552.2 380.645 1542.27 332.205 1529.5C260.089 1510.51 176.243 1575.4 103.469 1565.74Z" fill="#BB3301"/>
<path d="M103.469 1961.74C45.312 1954.03 0 1925.5 0 1925.5V2327.92C0 2327.92 52.8075 2360.77 115.264 2371.56C191.464 2384.72 262.018 2302.72 337.132 2327.92C390.328 2345.77 430 2356.57 430 2356.57V1948.2C430 1948.2 380.645 1938.27 332.205 1925.5C260.089 1906.51 176.243 1971.4 103.469 1961.74Z" fill="#BB3301"/>
<path d="M103.469 2351.74C45.312 2344.03 0 2315.5 0 2315.5V2717.92C0 2717.92 52.8075 2750.77 115.264 2761.56C191.464 2774.72 262.018 2692.72 337.132 2717.92C390.328 2735.77 430 2746.57 430 2746.57V2338.2C430 2338.2 380.645 2328.27 332.205 2315.5C260.089 2296.51 176.243 2361.4 103.469 2351.74Z" fill="#BB3301"/>
<path d="M103.469 1170.74C45.312 1163.03 0 1134.5 0 1134.5V1536.92C0 1536.92 52.8075 1569.77 115.264 1580.56C191.464 1593.72 262.018 1511.72 337.132 1536.92C390.328 1554.77 430 1565.57 430 1565.57V1157.2C430 1157.2 380.645 1147.27 332.205 1134.5C260.089 1115.51 176.243 1180.4 103.469 1170.74Z" fill="#BB3301"/>
<path d="M103.469 775.743C45.312 768.03 0 739.505 0 739.505V1141.92C0 1141.92 52.8075 1174.77 115.264 1185.56C191.464 1198.72 262.018 1116.72 337.132 1141.92C390.328 1159.77 430 1170.57 430 1170.57V762.201C430 762.201 380.645 752.267 332.205 739.505C260.089 720.505 176.243 785.395 103.469 775.743Z" fill="#BB3301"/>
<path d="M103.469 379.743C45.312 372.03 0 343.505 0 343.505V745.922C0 745.922 52.8075 778.774 115.264 789.56C191.464 802.719 262.018 720.724 337.132 745.922C390.328 763.767 430 774.571 430 774.571V366.201C430 366.201 380.645 356.267 332.205 343.505C260.089 324.505 176.243 389.395 103.469 379.743Z" fill="#BB3301"/>
<path d="M103.469 39.7433C45.312 32.03 0 3.50497 0 3.50497V405.922C0 405.922 52.8075 438.774 115.264 449.56C191.464 462.719 262.018 380.724 337.132 405.922C390.328 423.767 430 434.571 430 434.571V26.2011C430 26.2011 380.645 16.267 332.205 3.50495C260.089 -15.4948 176.243 49.3953 103.469 39.7433Z" fill="#BB3301"/>
<rect y="2711" width="430" height="155" fill="white"/>
</svg>
