<svg width="375" height="2658" viewBox="0 0 375 2658" fill="none" xmlns="http://www.w3.org/2000/svg">
<path d="M90.2344 1299.14C39.5163 1292.74 0 1269.07 0 1269.07V1602.97C0 1602.97 46.053 1630.23 100.521 1639.18C166.974 1650.1 228.504 1582.06 294.01 1602.97C340.403 1617.78 375 1626.74 375 1626.74V1287.9C375 1287.9 331.958 1279.66 289.714 1269.07C226.822 1253.31 153.7 1307.15 90.2344 1299.14Z" fill="#BB3301"/>
<path d="M90.2344 1627.71C39.5163 1621.31 0 1597.64 0 1597.64V1931.54C0 1931.54 46.053 1958.8 100.521 1967.75C166.974 1978.67 228.504 1910.63 294.01 1931.54C340.403 1946.35 375 1955.31 375 1955.31V1616.48C375 1616.48 331.958 1608.23 289.714 1597.64C226.822 1581.88 153.7 1635.72 90.2344 1627.71Z" fill="#BB3301"/>
<path d="M90.2344 1951.31C39.5163 1944.91 0 1921.24 0 1921.24V2255.14C0 2255.14 46.053 2282.39 100.521 2291.34C166.974 2302.26 228.504 2234.23 294.01 2255.14C340.403 2269.94 375 2278.91 375 2278.91V1940.07C375 1940.07 331.958 1931.83 289.714 1921.24C226.822 1905.47 153.7 1959.32 90.2344 1951.31Z" fill="#BB3301"/>
<path d="M90.2344 2244.98C39.5163 2238.58 0 2214.91 0 2214.91V2548.8C0 2548.8 46.053 2576.06 100.521 2585.01C166.974 2595.93 228.504 2527.9 294.01 2548.8C340.403 2563.61 375 2572.58 375 2572.58V2233.74C375 2233.74 331.958 2225.5 289.714 2214.91C226.822 2199.14 153.7 2252.98 90.2344 2244.98Z" fill="#BB3301"/>
<path d="M90.2344 971.399C39.5163 964.999 0 941.331 0 941.331V1275.23C0 1275.23 46.053 1302.49 100.521 1311.43C166.974 1322.35 228.504 1254.32 294.01 1275.23C340.403 1290.03 375 1299 375 1299V960.162C375 960.162 331.958 951.92 289.714 941.331C226.822 925.566 153.7 979.407 90.2344 971.399Z" fill="#BB3301"/>
<path d="M90.2344 643.656C39.5163 637.256 0 613.588 0 613.588V947.484C0 947.484 46.053 974.743 100.521 983.692C166.974 994.61 228.504 926.577 294.01 947.484C340.403 962.291 375 971.255 375 971.255V632.42C375 632.42 331.958 624.177 289.714 613.588C226.822 597.823 153.7 651.665 90.2344 643.656Z" fill="#BB3301"/>
<path d="M90.2344 315.084C39.5163 308.684 0 285.016 0 285.016V618.912C0 618.912 46.053 646.17 100.521 655.119C166.974 666.038 228.504 598.005 294.01 618.912C340.403 633.719 375 642.683 375 642.683V303.847C375 303.847 331.958 295.605 289.714 285.016C226.822 269.251 153.7 323.092 90.2344 315.084Z" fill="#BB3301"/>
<path d="M90.2344 32.9761C39.5163 26.5762 0 2.90817 0 2.90817V336.805C0 336.805 46.053 364.063 100.521 373.012C166.974 383.931 228.504 315.897 294.01 336.805C340.403 351.611 375 360.576 375 360.576V21.7398C375 21.7398 331.958 13.4972 289.714 2.90815C226.822 -12.8565 153.7 40.9847 90.2344 32.9761Z" fill="#BB3301"/>
<rect y="2529" width="375" height="128.608" fill="white"/>
</svg>
