<svg width="108" height="107" viewBox="0 0 108 107" fill="none" xmlns="http://www.w3.org/2000/svg">
<g id="Vector">
<path d="M53.6811 106.74C39.5074 106.74 25.9142 101.156 15.8919 91.2166C5.86959 81.2772 0.239105 67.7965 0.239105 53.74C0.239105 39.6835 5.86959 26.2028 15.8919 16.2633C25.9142 6.3239 39.5074 0.73999 53.6811 0.73999C67.8548 0.73999 81.448 6.3239 91.4703 16.2633C101.493 26.2028 107.123 39.6835 107.123 53.74C107.123 67.7965 101.493 81.2772 91.4703 91.2166C81.448 101.156 67.8548 106.74 53.6811 106.74ZM59.3393 52.7794C63.0418 51.4583 66.1556 48.8842 68.1325 45.5101C70.1094 42.1361 70.8226 38.1785 70.1465 34.3343C69.4704 30.49 67.4484 27.0056 64.4365 24.4944C61.4246 21.9833 57.6159 20.6066 53.6811 20.6066C49.7463 20.6066 45.9376 21.9833 42.9257 24.4944C39.9138 27.0056 37.8918 30.49 37.2157 34.3343C36.5396 38.1785 37.2528 42.1361 39.2297 45.5101C41.2066 48.8842 44.3204 51.4583 48.0229 52.7794C36.7867 55.4691 26.9601 65.4994 26.9601 73.615C26.9601 76.2319 27.9287 80.2069 33.6403 80.2069H73.7218C79.4334 80.2069 80.4021 76.2319 80.4021 73.615C80.4021 65.506 70.5821 55.4625 59.3393 52.7794Z" fill="#BB3301"/>
<path d="M53.6811 106.74C39.5074 106.74 25.9142 101.156 15.8919 91.2166C5.86959 81.2772 0.239105 67.7965 0.239105 53.74C0.239105 39.6835 5.86959 26.2028 15.8919 16.2633C25.9142 6.3239 39.5074 0.73999 53.6811 0.73999C67.8548 0.73999 81.448 6.3239 91.4703 16.2633C101.493 26.2028 107.123 39.6835 107.123 53.74C107.123 67.7965 101.493 81.2772 91.4703 91.2166C81.448 101.156 67.8548 106.74 53.6811 106.74ZM59.3393 52.7794C63.0418 51.4583 66.1556 48.8842 68.1325 45.5101C70.1094 42.1361 70.8226 38.1785 70.1465 34.3343C69.4704 30.49 67.4484 27.0056 64.4365 24.4944C61.4246 21.9833 57.6159 20.6066 53.6811 20.6066C49.7463 20.6066 45.9376 21.9833 42.9257 24.4944C39.9138 27.0056 37.8918 30.49 37.2157 34.3343C36.5396 38.1785 37.2528 42.1361 39.2297 45.5101C41.2066 48.8842 44.3204 51.4583 48.0229 52.7794C36.7867 55.4691 26.9601 65.4994 26.9601 73.615C26.9601 76.2319 27.9287 80.2069 33.6403 80.2069H73.7218C79.4334 80.2069 80.4021 76.2319 80.4021 73.615C80.4021 65.506 70.5821 55.4625 59.3393 52.7794Z" fill="black" fill-opacity="0.2"/>
<path d="M59.3393 52.7794C63.0418 51.4583 66.1556 48.8842 68.1325 45.5101C70.1094 42.1361 70.8226 38.1785 70.1465 34.3343C69.4704 30.49 67.4484 27.0056 64.4365 24.4944C61.4246 21.9833 57.6159 20.6066 53.6811 20.6066C49.7463 20.6066 45.9376 21.9833 42.9257 24.4944C39.9138 27.0056 37.8918 30.49 37.2157 34.3343C36.5396 38.1785 37.2528 42.1361 39.2297 45.5101C41.2066 48.8842 44.3204 51.4583 48.0229 52.7794C36.7867 55.4691 26.9601 65.4994 26.9601 73.615C26.9601 76.2319 27.9287 80.2069 33.6403 80.2069H73.7218C79.4334 80.2069 80.4021 76.2319 80.4021 73.615C80.4021 65.506 70.5821 55.4625 59.3393 52.7794Z" fill="#B05656"/>
<path d="M59.3393 52.7794C63.0418 51.4583 66.1556 48.8842 68.1325 45.5101C70.1094 42.1361 70.8226 38.1785 70.1465 34.3343C69.4704 30.49 67.4484 27.0056 64.4365 24.4944C61.4246 21.9833 57.6159 20.6066 53.6811 20.6066C49.7463 20.6066 45.9376 21.9833 42.9257 24.4944C39.9138 27.0056 37.8918 30.49 37.2157 34.3343C36.5396 38.1785 37.2528 42.1361 39.2297 45.5101C41.2066 48.8842 44.3204 51.4583 48.0229 52.7794C36.7867 55.4691 26.9601 65.4994 26.9601 73.615C26.9601 76.2319 27.9287 80.2069 33.6403 80.2069H73.7218C79.4334 80.2069 80.4021 76.2319 80.4021 73.615C80.4021 65.506 70.5821 55.4625 59.3393 52.7794Z" fill="white" fill-opacity="0.7"/>
<path d="M59.1712 52.3084L57.5844 52.8746L59.2232 53.2657C64.7454 54.5836 69.9311 57.7144 73.7332 61.516C77.5468 65.3292 79.9021 69.7474 79.9021 73.615C79.9021 74.8766 79.666 76.401 78.7988 77.5991C77.9531 78.7674 76.4475 79.7069 73.7218 79.7069H33.6403C30.9147 79.7069 29.4091 78.7674 28.5634 77.5991C27.6962 76.401 27.4601 74.8766 27.4601 73.615C27.4601 69.7442 29.8169 65.3277 33.6314 61.5162C37.4343 57.7161 42.6201 54.5868 48.1393 53.2656L49.7757 52.8739L48.1909 52.3084C44.5985 51.0267 41.5782 48.5294 39.6611 45.2574C37.744 41.9854 37.0526 38.1481 37.7081 34.4209C38.3636 30.6936 40.3242 27.3143 43.2459 24.8785C46.1676 22.4426 49.8628 21.1066 53.6811 21.1066C57.4994 21.1066 61.1946 22.4426 64.1163 24.8785C67.0379 27.3143 68.9986 30.6936 69.6541 34.4209C70.3096 38.1481 69.6182 41.9854 67.7011 45.2574C65.784 48.5294 62.7637 51.0267 59.1712 52.3084ZM53.6811 106.24C39.6387 106.24 26.1722 100.708 16.244 90.8616C6.31589 81.0156 0.739105 67.6625 0.739105 53.74C0.739105 39.8175 6.31589 26.4643 16.244 16.6184C26.1722 6.77223 39.6387 1.23999 53.6811 1.23999C67.7235 1.23999 81.19 6.77223 91.1182 16.6184C101.046 26.4643 106.623 39.8175 106.623 53.74C106.623 67.6625 101.046 81.0156 91.1182 90.8616C81.19 100.708 67.7235 106.24 53.6811 106.24ZM74.4403 60.8089C70.855 57.224 66.075 54.2131 60.9062 52.6812C64.1027 51.215 66.7816 48.8048 68.5639 45.7629C70.6006 42.2868 71.3356 38.2089 70.6389 34.2477C69.9423 30.2864 67.8589 26.6968 64.7567 24.1104C61.6546 21.5241 57.7325 20.1066 53.6811 20.1066C49.6297 20.1066 45.7076 21.5241 42.6055 24.1104C39.5033 26.6968 37.4199 30.2864 36.7232 34.2477C36.0266 38.2089 36.7616 42.2868 38.7983 45.7629C40.5808 48.8052 43.2602 51.2156 46.4572 52.6818C41.291 54.2159 36.5108 57.2253 32.9245 60.8088C29.0166 64.7137 26.4601 69.3702 26.4601 73.615C26.4601 74.9703 26.7083 76.7418 27.7533 78.1854C28.8199 79.6589 30.6544 80.7069 33.6403 80.7069H73.7218C76.7078 80.7069 78.5423 79.6589 79.6088 78.1854C80.6538 76.7418 80.9021 74.9703 80.9021 73.615C80.9021 69.3736 78.3474 64.7155 74.4403 60.8089Z" stroke="black"/>
</g>
</svg>
