<svg width="182" height="342" viewBox="0 0 182 342" fill="none" xmlns="http://www.w3.org/2000/svg">
<path fill-rule="evenodd" clip-rule="evenodd" d="M127.108 83.3067C127.108 83.3067 100.742 78.9999 83.8447 78.5582C68.5346 78.1581 52.1883 84.8895 52.1883 84.8895C52.1883 84.8895 40.2731 89.7769 35.8324 94.3865C33.1734 97.1466 28.9735 100.19 28.9735 100.19C28.9735 100.19 11.3024 87.2196 5.75882 76.4478C2.07692 69.2934 0.873335 64.4438 1.01036 56.3987C1.17679 46.6267 3.0943 40.5006 8.92446 32.6564C16.197 22.8717 23.9172 19.4087 35.8324 16.8282C43.8874 15.0838 56.9367 16.8282 56.9367 16.8282L66.4336 7.85889L76.4582 3.11043L88.0655 1L101.256 3.11043C101.256 3.11043 115.776 9.1188 121.305 16.8282C127.922 26.0555 127.108 45.319 127.108 45.319V83.3067ZM22.6422 60.6196C26.2409 68.1167 36.8876 76.4478 36.8876 76.4478L24.7527 88.0552C24.7527 88.0552 16.1075 81.0542 13.1453 74.865C10.6851 69.7245 10.3714 66.305 9.97968 60.6196C9.49486 53.5825 9.61092 49.2847 12.0901 42.681C14.1397 37.2216 20.0042 30.0184 20.0042 30.0184C20.0042 30.0184 18.7808 37.7216 18.949 42.681C19.1915 49.8293 19.5471 54.1716 22.6422 60.6196Z" fill="black" stroke="#fffff"/>
<path d="M146.102 106.521C146.102 106.521 145.955 104.903 146.102 103.883C146.792 99.1047 151.817 98.9695 155.599 95.9689C162.186 90.7435 167.853 89.9463 173.01 83.3064C179.972 74.3432 181.372 66.6836 180.924 55.3432C180.532 45.3817 179.163 38.9174 173.01 31.0733C165.333 21.2853 156.866 18.3453 144.52 16.8279C140.02 16.2749 132.912 16.8279 132.912 16.8279C132.912 16.8279 136.608 30.5656 132.912 37.9321C131.267 41.2111 127.109 45.3186 127.109 45.3186L101.783 69.061C101.783 69.061 96.5673 73.9444 113.918 79.0855C128.164 83.3064 133.324 93.0843 132.912 95.9689L146.102 106.521Z" fill="black" stroke="#fffff"/>
<path d="M43.7472 201.491L2.0662 227.871L18.422 241.589L3.12141 256.362L14.7288 275.356C14.7288 275.356 26.4485 290.454 33.195 298.57C47.3702 315.625 71.1827 340.779 71.1827 340.779C71.1827 340.779 50.0784 286.436 46.9128 262.166C43.7472 237.896 43.7472 201.491 43.7472 201.491Z" fill="black" stroke="#fffff"/>
<path d="M137.728 201.491L179.091 227.871L162.86 241.589L178.043 256.362L166.525 275.356C166.525 275.356 154.894 290.454 148.199 298.57C134.132 315.625 110.502 340.779 110.502 340.779C110.502 340.779 131.445 286.436 134.586 262.166C137.728 237.896 137.728 201.491 137.728 201.491Z" fill="black" stroke="#fffff"/>
<path d="M91.2307 309.122C89.1094 309.122 87.9157 309.669 86.4823 311.233C85.237 312.591 84.3718 314.138 84.3718 315.981C84.3718 317.824 84.6444 318.906 85.9547 320.202C87.3974 321.629 89.2118 322.517 91.2307 322.312C92.8834 322.145 94.2912 321.391 95.4516 320.202C96.7389 318.883 97.3885 317.816 97.562 315.981C97.722 314.289 97.4752 313.156 96.5068 311.76C95.2978 310.017 93.3521 309.122 91.2307 309.122Z" fill="black" stroke="#fffff"/>
<path d="M91.2307 279.049C89.1094 279.049 87.9157 279.595 86.4823 281.159C85.237 282.518 84.3718 284.065 84.3718 285.908C84.3718 287.75 84.6444 288.832 85.9547 290.128C87.3974 291.555 89.2118 292.443 91.2307 292.239C92.8834 292.071 94.2912 291.317 95.4516 290.128C96.7389 288.81 97.3885 287.742 97.562 285.908C97.722 284.216 97.4752 283.083 96.5068 281.687C95.2978 279.944 93.3521 279.049 91.2307 279.049Z" fill="black" stroke="#fffff"/>
<path d="M91.2307 248.975C89.1094 248.975 87.9157 249.522 86.4823 251.085C85.237 252.444 84.3718 253.991 84.3718 255.834C84.3718 257.677 84.6444 258.759 85.9547 260.055C87.3974 261.482 89.2118 262.37 91.2307 262.165C92.8834 261.998 94.2912 261.243 95.4516 260.055C96.7389 258.736 97.3885 257.669 97.562 255.834C97.722 254.142 97.4752 253.009 96.5068 251.613C95.2978 249.87 93.3521 248.975 91.2307 248.975Z" fill="black" stroke="#fffff"/>
<path d="M91.2307 218.901C89.1094 218.901 87.9157 219.448 86.4823 221.012C85.237 222.37 84.3718 223.917 84.3718 225.76C84.3718 227.603 84.6444 228.685 85.9547 229.981C87.3974 231.408 89.2118 232.296 91.2307 232.092C92.8834 231.924 94.2912 231.17 95.4516 229.981C96.7389 228.662 97.3885 227.595 97.562 225.76C97.722 224.069 97.4752 222.936 96.5068 221.54C95.2978 219.796 93.3521 218.901 91.2307 218.901Z" fill="black" stroke="#fffff"/>
<path d="M63.7951 180.386V207.822L67.4884 210.46L90.7031 197.27V190.411L66.9608 177.748L63.7951 180.386Z" fill="black" stroke="#fffff"/>
<path d="M119.193 180.386V207.822L115.283 210.46L90.7027 197.27V190.411L115.842 177.748L119.193 180.386Z" fill="black" stroke="#fffff"/>
<path fill-rule="evenodd" clip-rule="evenodd" d="M133.966 96.4958C133.966 96.4958 107.063 86.7513 89.1197 86.4712C68.8742 86.1553 39.5246 102.301 39.5246 102.301V138.177C39.5246 138.177 52.1679 145.981 61.1565 148.729C71.6663 151.942 76.4571 153.477 89.1197 153.477C103.893 153.477 110.223 152.61 122.887 148.729C132.051 145.921 145.046 138.177 145.046 138.177L146.101 106.52L133.966 96.4958ZM135.021 139.232C135.021 139.232 107.234 146.712 89.1197 146.091C73.1676 145.544 49.0215 138.177 49.0215 138.177C49.0215 138.177 73.1599 130.489 89.1197 130.263C107.383 130.004 135.021 139.232 135.021 139.232Z" fill="black" stroke="#fffff"/>
</svg>
