<svg width="245" height="120" viewBox="0 0 245 120" fill="none" xmlns="http://www.w3.org/2000/svg">
<path d="M221 69.8225H209V81.2121H221M221 47.0433H209V58.4329H221M233 92.6016H185V81.2121H197V69.8225H185V58.4329H197V47.0433H185V35.6538H233M173 24.2642H161V12.8746H173M173 47.0433H161V35.6538H173M173 69.8225H161V58.4329H173M173 92.6016H161V81.2121H173M149 24.2642H137V12.8746H149M149 47.0433H137V35.6538H149M149 69.8225H137V58.4329H149M149 92.6016H137V81.2121H149M185 24.2642V1.48505H125V103.991H245V24.2642H185Z" fill="#BB3301"/>
<path fill-rule="evenodd" clip-rule="evenodd" d="M15 92.5C15 82.805 30.365 76.7425 44.605 74.0775C45.58 73.8975 46.545 73.73 47.5025 73.58V73.75C47.5025 78.575 53.08 82.4875 59.97 82.5H60.03C66.92 82.4875 72.5 78.575 72.5 73.75V73.58C74.1237 73.8353 75.7408 74.1304 77.35 74.465C91.01 77.3 105 83.25 105 92.5V105H15V92.5ZM20 92.5C20 90.425 21.8575 87.5325 27.8825 84.505C31.5225 82.68 35.98 81.18 40.625 80.0475C39.7512 82.5499 39.789 85.2805 40.7318 87.7578C41.6746 90.235 43.4618 92.2999 45.7783 93.5881C48.0948 94.8764 50.7917 95.3054 53.3936 94.7994C55.9955 94.2934 58.3351 92.885 60 90.8225C61.6649 92.885 64.0045 94.2934 66.6064 94.7994C69.2083 95.3054 71.9052 94.8764 74.2217 93.5881C76.5382 92.2999 78.3254 90.235 79.2682 87.7578C80.211 85.2805 80.2488 82.5499 79.375 80.0475C84.02 81.1825 88.4775 82.6775 92.1175 84.505C98.1425 87.5325 100 90.425 100 92.5V100H90V90H85V100H35V90H30V100H20V92.5ZM56.4475 87.2225C53.4225 86.7425 50.6075 85.6525 48.2925 84.0325C47.2349 83.2956 46.2755 82.4269 45.4375 81.4475C44.8654 82.8831 44.8455 84.4798 45.3816 85.9293C45.9176 87.3787 46.9717 88.5782 48.3403 89.296C49.7089 90.0139 51.2949 90.1992 52.7921 89.8163C54.2894 89.4333 55.5916 88.5093 56.4475 87.2225ZM63.5525 87.2225C64.4084 88.5093 65.7106 89.4333 67.2079 89.8163C68.7051 90.1992 70.2911 90.0139 71.6597 89.296C73.0283 88.5782 74.0824 87.3787 74.6184 85.9293C75.1545 84.4798 75.1346 82.8831 74.5625 81.4475C73.723 82.4264 72.7629 83.295 71.705 84.0325C69.3925 85.6525 66.58 86.7425 63.555 87.2225M71.555 18.8175L60 14.8575L48.445 18.8175C45.9806 19.6626 43.8419 21.2567 42.3278 23.3768C40.8136 25.497 39.9998 28.0372 40 30.6425V47.5H40.0425C40.0137 47.916 39.9996 48.3329 40 48.75C40 59.105 48.955 67.5 60 67.5C71.045 67.5 80 59.105 80 48.75C80 48.33 79.985 47.9125 79.9575 47.5H80V30.6425C80.0002 28.0372 79.1864 25.497 77.6722 23.3768C76.1581 21.2567 74.0194 19.6626 71.555 18.8175ZM60 30C54.025 30 48.665 32.455 45 36.35V30.6425C44.9999 29.0793 45.4883 27.5551 46.3969 26.283C47.3054 25.0109 48.5888 24.0545 50.0675 23.5475L60 20.1425L69.9325 23.5475C71.4112 24.0545 72.6946 25.0109 73.6031 26.283C74.5117 27.5551 75.0001 29.0793 75 30.6425V36.3475C71.335 32.455 65.975 30 60 30ZM60 62.5C68.5925 62.5 75 56.045 75 48.75C75 41.455 68.5925 35 60 35C51.4075 35 45 41.455 45 48.75C45 56.045 51.4075 62.5 60 62.5Z" fill="#BB3301"/>
</svg>
