<svg width="26" height="42" viewBox="0 0 26 42" fill="none" xmlns="http://www.w3.org/2000/svg">
<path d="M25.25 1.87512C25.25 1.57675 25.1315 1.2906 24.9205 1.07963C24.7095 0.868647 24.4234 0.75012 24.125 0.75012H18.5C15.6675 0.609025 12.8943 1.59475 10.7864 3.49192C8.6784 5.3891 7.40702 8.04349 7.25 10.8751V16.9501H1.625C1.32663 16.9501 1.04048 17.0686 0.829505 17.2796C0.618527 17.4906 0.5 17.7768 0.5 18.0751V23.9251C0.5 24.2235 0.618527 24.5096 0.829505 24.7206C1.04048 24.9316 1.32663 25.0501 1.625 25.0501H7.25V40.1251C7.25 40.4235 7.36853 40.7096 7.5795 40.9206C7.79048 41.1316 8.07663 41.2501 8.375 41.2501H15.125C15.4234 41.2501 15.7095 41.1316 15.9205 40.9206C16.1315 40.7096 16.25 40.4235 16.25 40.1251V25.0501H22.145C22.3952 25.0537 22.6394 24.9738 22.8391 24.823C23.0388 24.6723 23.1825 24.4592 23.2475 24.2176L24.8675 18.3676C24.9123 18.2014 24.9183 18.0271 24.8851 17.8582C24.8519 17.6893 24.7804 17.5302 24.6761 17.3933C24.5717 17.2564 24.4374 17.1452 24.2833 17.0684C24.1293 16.9915 23.9596 16.9511 23.7875 16.9501H16.25V10.8751C16.306 10.3182 16.5675 9.80212 16.9836 9.42768C17.3996 9.05324 17.9403 8.84731 18.5 8.85012H24.125C24.4234 8.85012 24.7095 8.73159 24.9205 8.52061C25.1315 8.30964 25.25 8.02349 25.25 7.72512V1.87512Z" fill="white"/>
</svg>
