<svg width="133" height="189" viewBox="0 0 133 189" fill="none" xmlns="http://www.w3.org/2000/svg">
<path d="M66.0957 0.0198364C57.5246 0.0198364 49.7217 4.37816 45.6787 11.1906L43.8998 14.1904L40.8272 12.5409C37.9566 10.9844 34.6818 10.1596 31.407 10.1596C19.9654 10.1596 10.6666 19.6889 10.6666 31.6722C10.6666 42.3861 18.1865 51.3211 28.2535 52.9383L31.3262 53.4234V75.0129C54.735 70.5252 78.2246 70.323 101.674 75.0129V46.8334L103.614 45.7822C109.962 42.4265 114.167 35.2301 114.167 27.1239C114.167 15.4801 105.798 6.45624 95.8115 6.45624C93.1836 6.45624 90.5557 7.10716 88.1703 8.36452L85.6637 9.65827L83.8039 7.6004C79.4375 2.84183 72.9688 0.0198364 66.0957 0.0198364ZM66.5 78.7728C56.15 78.7728 45.8404 79.7431 35.4904 81.6029C35.1266 84.0287 34.9648 86.5353 34.9648 89.1228C34.9648 100.847 38.6844 111.44 44.5063 118.92C50.3281 126.399 58.0502 130.765 66.5 130.765C74.9498 130.765 82.6719 126.399 88.4938 118.92C94.3156 111.44 98.0352 100.847 98.0352 89.1228C98.0352 86.5353 97.833 83.9883 97.5096 81.5625C87.1596 79.6623 76.85 78.7324 66.5 78.7728ZM47.3768 131.695L11.3135 143.703L0.00125122 188.984H93.0219L87.1596 147.867L94.3561 146.816L100.38 188.984H133.007L121.687 143.703L85.6233 131.695C80.044 135.698 73.4943 138.043 66.5 138.043C59.5057 138.043 52.9561 135.698 47.3768 131.695ZM75.3945 153.002C75.9255 153.002 76.4512 153.106 76.9418 153.309C77.4323 153.513 77.878 153.81 78.2535 154.186C78.6289 154.561 78.9267 155.007 79.1299 155.497C79.333 155.988 79.4376 156.514 79.4375 157.045C79.4376 157.576 79.333 158.101 79.1299 158.592C78.9267 159.082 78.6289 159.528 78.2535 159.904C77.878 160.279 77.4323 160.577 76.9418 160.78C76.4512 160.983 75.9255 161.088 75.3945 161.088C74.8636 161.088 74.3378 160.983 73.8473 160.78C73.3568 160.577 72.911 160.279 72.5356 159.904C72.1602 159.528 71.8624 159.082 71.6592 158.592C71.4561 158.101 71.3515 157.576 71.3516 157.045C71.3515 156.514 71.4561 155.988 71.6592 155.497C71.8624 155.007 72.1602 154.561 72.5356 154.186C72.911 153.81 73.3568 153.513 73.8473 153.309C74.3378 153.106 74.8636 153.002 75.3945 153.002ZM78.2246 171.599C79.2969 171.599 80.3252 172.025 81.0834 172.784C81.8416 173.542 82.2676 174.57 82.2676 175.642C82.2676 176.715 81.8416 177.743 81.0834 178.501C80.3252 179.259 79.2969 179.685 78.2246 179.685C77.1524 179.685 76.124 179.259 75.3658 178.501C74.6076 177.743 74.1816 176.715 74.1816 175.642C74.1816 174.57 74.6076 173.542 75.3658 172.784C76.124 172.025 77.1524 171.599 78.2246 171.599Z" fill="#BB3301"/>
</svg>
