<svg width="181" height="133" viewBox="0 0 181 133" fill="none" xmlns="http://www.w3.org/2000/svg">
<path d="M16.625 0.833313C12.271 0.833313 8.09537 2.56292 5.01664 5.64164C1.93792 8.72037 0.208313 12.896 0.208313 17.25V107.542H16.625C16.625 114.073 19.2194 120.336 23.8375 124.954C28.4556 129.572 34.719 132.167 41.25 132.167C47.7809 132.167 54.0444 129.572 58.6625 124.954C63.2806 120.336 65.875 114.073 65.875 107.542H115.125C115.125 114.073 117.719 120.336 122.337 124.954C126.956 129.572 133.219 132.167 139.75 132.167C146.281 132.167 152.544 129.572 157.162 124.954C161.781 120.336 164.375 114.073 164.375 107.542H180.792V66.5L156.167 33.6666H131.542V0.833313M74.0833 17.25L106.917 50.0833L74.0833 82.9167V58.2916H24.8333V41.875H74.0833M131.542 45.9791H152.062L168.233 66.5H131.542M41.25 95.2292C44.5155 95.2292 47.6472 96.5264 49.9562 98.8354C52.2653 101.144 53.5625 104.276 53.5625 107.542C53.5625 110.807 52.2653 113.939 49.9562 116.248C47.6472 118.557 44.5155 119.854 41.25 119.854C37.9845 119.854 34.8528 118.557 32.5437 116.248C30.2347 113.939 28.9375 110.807 28.9375 107.542C28.9375 104.276 30.2347 101.144 32.5437 98.8354C34.8528 96.5264 37.9845 95.2292 41.25 95.2292ZM139.75 95.2292C143.015 95.2292 146.147 96.5264 148.456 98.8354C150.765 101.144 152.062 104.276 152.062 107.542C152.062 110.807 150.765 113.939 148.456 116.248C146.147 118.557 143.015 119.854 139.75 119.854C136.484 119.854 133.353 118.557 131.044 116.248C128.735 113.939 127.437 110.807 127.437 107.542C127.437 104.276 128.735 101.144 131.044 98.8354C133.353 96.5264 136.484 95.2292 139.75 95.2292Z" fill="#BB3301"/>
</svg>
