<svg width="219" height="183" viewBox="0 0 219 183" fill="none" xmlns="http://www.w3.org/2000/svg">
<path d="M191.625 109.875H219V183H109.5V109.875H136.875V85.5H191.625V109.875ZM150.563 109.875H177.938V97.6875H150.563V109.875ZM205.313 146.438H191.625V158.625H177.938V146.438H150.563V158.625H136.875V146.438H123.188V170.812H205.313V146.438ZM123.188 122.062V134.25H205.313V122.062H123.188ZM95.8125 73.3125C95.8125 79.2158 94.3511 84.7383 91.4282 89.8799C88.5054 95.0215 84.335 99.3379 78.917 102.829C82.125 104.289 85.1548 105.971 88.0064 107.875C90.8579 109.78 93.46 111.906 95.8125 114.255V146.438C95.8125 141.423 94.7432 136.694 92.6045 132.25C90.4658 127.807 87.543 123.935 83.8359 120.634C80.1289 117.333 75.7446 114.699 70.6831 112.731C65.6216 110.764 60.3106 109.812 54.75 109.875C49.0469 109.875 43.7358 110.827 38.8169 112.731C33.898 114.636 29.5493 117.238 25.771 120.539C21.9927 123.84 19.0342 127.744 16.8955 132.25C14.7568 136.757 13.6875 141.486 13.6875 146.438H0C0 141.804 0.712891 137.329 2.13867 133.012C3.56445 128.696 5.59619 124.602 8.23389 120.729C10.8716 116.857 14.1152 113.43 17.9648 110.446C21.8145 107.463 26.0205 104.892 30.583 102.734C25.2363 99.3062 21.1016 95.0215 18.1787 89.8799C15.2559 84.7383 13.7588 79.2158 13.6875 73.3125C13.6875 68.2979 14.7568 63.5688 16.8955 59.1255C19.0342 54.6821 21.957 50.8101 25.6641 47.5093C29.3711 44.2085 33.7197 41.5742 38.71 39.6064C43.7002 37.6387 49.0469 36.6865 54.75 36.75C59.8828 36.75 64.7661 37.5435 69.3999 39.1304C74.0337 40.7173 78.2754 43.0659 82.125 46.1763C84.4063 44.3354 86.937 42.7168 89.7173 41.3203C87.2935 39.0986 85.4399 36.5278 84.1567 33.6079C82.8735 30.688 82.1963 27.6729 82.125 24.5625C82.125 21.1982 82.8379 18.0562 84.2637 15.1362C85.6895 12.2163 87.6499 9.61377 90.145 7.32861C92.6401 5.04346 95.5274 3.29785 98.8066 2.0918C102.086 0.885742 105.65 0.250977 109.5 0.1875C113.278 0.1875 116.807 0.822266 120.086 2.0918C123.366 3.36133 126.289 5.10693 128.855 7.32861C131.421 9.55029 133.382 12.1211 134.736 15.041C136.091 17.9609 136.804 21.1348 136.875 24.5625C136.875 27.6729 136.233 30.688 134.95 33.6079C133.667 36.5278 131.778 39.0986 129.283 41.3203C135.2 44.2402 140.012 48.1758 143.719 53.127C147.426 48.1758 152.238 44.2402 158.155 41.3203C155.731 39.0986 153.877 36.5278 152.594 33.6079C151.311 30.688 150.634 27.6729 150.563 24.5625C150.563 21.1982 151.275 18.0562 152.701 15.1362C154.127 12.2163 156.087 9.61377 158.583 7.32861C161.078 5.04346 163.965 3.29785 167.244 2.0918C170.523 0.885742 174.088 0.250977 177.938 0.1875C181.716 0.1875 185.245 0.822266 188.524 2.0918C191.803 3.36133 194.726 5.10693 197.292 7.32861C199.859 9.55029 201.819 12.1211 203.174 15.041C204.528 17.9609 205.241 21.1348 205.313 24.5625C205.313 27.6729 204.671 30.688 203.388 33.6079C202.105 36.5278 200.215 39.0986 197.72 41.3203C201 42.9072 203.958 44.8433 206.596 47.1284C209.233 49.4136 211.443 51.9209 213.226 54.6504C215.008 57.3799 216.434 60.3633 217.503 63.6006C218.572 66.8379 219.071 70.0752 219 73.3125H205.313C205.313 69.9482 204.6 66.8062 203.174 63.8862C201.748 60.9663 199.788 58.3638 197.292 56.0786C194.797 53.7935 191.91 52.0479 188.631 50.8418C185.352 49.6357 181.787 49.001 177.938 48.9375C174.159 48.9375 170.63 49.5723 167.351 50.8418C164.072 52.1113 161.149 53.8569 158.583 56.0786C156.016 58.3003 154.056 60.8711 152.701 63.791C151.347 66.7109 150.634 69.8848 150.563 73.3125H136.875C136.875 69.9482 136.162 66.8062 134.736 63.8862C133.311 60.9663 131.35 58.3638 128.855 56.0786C126.36 53.7935 123.473 52.0479 120.193 50.8418C116.914 49.6357 113.35 49.001 109.5 48.9375C106.007 48.9375 102.621 49.5088 99.3413 50.6514C96.062 51.7939 93.1748 53.4761 90.6797 55.6978C92.3906 58.3638 93.6738 61.1885 94.5293 64.1719C95.3848 67.1553 95.8125 70.2021 95.8125 73.3125ZM177.938 12.375C176.013 12.375 174.23 12.6924 172.591 13.3271C170.951 13.9619 169.525 14.8188 168.313 15.8979C167.102 16.9771 166.104 18.2783 165.319 19.8018C164.535 21.3252 164.179 22.9121 164.25 24.5625C164.25 26.2764 164.606 27.8633 165.319 29.3232C166.032 30.7832 166.995 32.0527 168.207 33.1318C169.418 34.2109 170.88 35.0996 172.591 35.7979C174.302 36.4961 176.084 36.8135 177.938 36.75C179.862 36.75 181.645 36.4326 183.284 35.7979C184.924 35.1631 186.35 34.3062 187.562 33.2271C188.773 32.1479 189.771 30.8467 190.556 29.3232C191.34 27.7998 191.696 26.2129 191.625 24.5625C191.625 22.8486 191.269 21.2617 190.556 19.8018C189.843 18.3418 188.88 17.0723 187.668 15.9932C186.457 14.9141 184.995 14.0254 183.284 13.3271C181.573 12.6289 179.791 12.3115 177.938 12.375ZM109.5 12.375C107.575 12.375 105.793 12.6924 104.153 13.3271C102.514 13.9619 101.088 14.8188 99.876 15.8979C98.6641 16.9771 97.666 18.2783 96.8818 19.8018C96.0977 21.3252 95.7412 22.9121 95.8125 24.5625C95.8125 26.2764 96.169 27.8633 96.8818 29.3232C97.5947 30.7832 98.5571 32.0527 99.7691 33.1318C100.981 34.2109 102.442 35.0996 104.153 35.7979C105.864 36.4961 107.646 36.8135 109.5 36.75C111.425 36.75 113.207 36.4326 114.847 35.7979C116.486 35.1631 117.912 34.3062 119.124 33.2271C120.336 32.1479 121.334 30.8467 122.118 29.3232C122.902 27.7998 123.259 26.2129 123.188 24.5625C123.188 22.8486 122.831 21.2617 122.118 19.8018C121.405 18.3418 120.443 17.0723 119.231 15.9932C118.019 14.9141 116.558 14.0254 114.847 13.3271C113.136 12.6289 111.354 12.3115 109.5 12.375ZM54.75 97.6875C58.5283 97.6875 62.0571 97.0527 65.3364 95.7832C68.6157 94.5137 71.5386 92.7681 74.105 90.5464C76.6714 88.3247 78.6318 85.7539 79.9863 82.834C81.3408 79.9141 82.0537 76.7402 82.125 73.3125C82.125 69.9482 81.4121 66.8062 79.9863 63.8862C78.5606 60.9663 76.6001 58.3638 74.105 56.0786C71.6099 53.7935 68.7227 52.0479 65.4434 50.8418C62.1641 49.6357 58.5996 49.001 54.75 48.9375C50.9717 48.9375 47.4429 49.5723 44.1636 50.8418C40.8843 52.1113 37.9614 53.8569 35.395 56.0786C32.8286 58.3003 30.8682 60.8711 29.5137 63.791C28.1592 66.7109 27.4463 69.8848 27.375 73.3125C27.375 76.6768 28.0879 79.8188 29.5137 82.7388C30.9395 85.6587 32.8999 88.2612 35.395 90.5464C37.8901 92.8315 40.7773 94.5771 44.0566 95.7832C47.3359 96.9893 50.9004 97.624 54.75 97.6875Z" fill="#BB3301"/>
</svg>
