<svg width="36" height="36" viewBox="0 0 36 36" fill="none" xmlns="http://www.w3.org/2000/svg">
<path d="M10.71 0.355957H25.29C30.8443 0.355957 35.3571 4.86881 35.3571 10.4231V25.0031C35.3571 27.6731 34.2965 30.2337 32.4085 32.1216C30.5206 34.0096 27.9599 35.0702 25.29 35.0702H10.71C5.15568 35.0702 0.642822 30.5574 0.642822 25.0031V10.4231C0.642822 7.75313 1.70346 5.19251 3.59142 3.30456C5.47938 1.4166 8.03999 0.355957 10.71 0.355957ZM10.3628 3.82739C8.7056 3.82739 7.11625 4.48572 5.94442 5.65755C4.77258 6.82938 4.11425 8.41873 4.11425 10.076V25.3502C4.11425 28.8043 6.90875 31.5988 10.3628 31.5988H25.6371C27.2943 31.5988 28.8837 30.9405 30.0555 29.7687C31.2274 28.5968 31.8857 27.0075 31.8857 25.3502V10.076C31.8857 6.62189 29.0912 3.82739 25.6371 3.82739H10.3628ZM27.1125 6.43096C27.6879 6.43096 28.2397 6.65954 28.6466 7.06643C29.0535 7.47332 29.2821 8.02518 29.2821 8.6006C29.2821 9.17603 29.0535 9.72788 28.6466 10.1348C28.2397 10.5417 27.6879 10.7702 27.1125 10.7702C26.537 10.7702 25.9852 10.5417 25.5783 10.1348C25.1714 9.72788 24.9428 9.17603 24.9428 8.6006C24.9428 8.02518 25.1714 7.47332 25.5783 7.06643C25.9852 6.65954 26.537 6.43096 27.1125 6.43096ZM18 9.03453C20.3017 9.03453 22.5091 9.94888 24.1366 11.5764C25.7642 13.204 26.6785 15.4114 26.6785 17.7131C26.6785 20.0148 25.7642 22.2222 24.1366 23.8498C22.5091 25.4773 20.3017 26.3917 18 26.3917C15.6983 26.3917 13.4908 25.4773 11.8633 23.8498C10.2357 22.2222 9.32139 20.0148 9.32139 17.7131C9.32139 15.4114 10.2357 13.204 11.8633 11.5764C13.4908 9.94888 15.6983 9.03453 18 9.03453ZM18 12.506C16.6189 12.506 15.2945 13.0546 14.318 14.0311C13.3414 15.0076 12.7928 16.3321 12.7928 17.7131C12.7928 19.0941 13.3414 20.4186 14.318 21.3951C15.2945 22.3716 16.6189 22.9202 18 22.9202C19.381 22.9202 20.7054 22.3716 21.682 21.3951C22.6585 20.4186 23.2071 19.0941 23.2071 17.7131C23.2071 16.3321 22.6585 15.0076 21.682 14.0311C20.7054 13.0546 19.381 12.506 18 12.506Z" fill="white"/>
</svg>
