<svg width="35" height="35" viewBox="0 0 35 35" fill="none" xmlns="http://www.w3.org/2000/svg">
<path d="M29.1846 5.4286C27.6404 3.87663 25.8012 2.64612 23.774 1.80884C21.7469 0.97155 19.5726 0.54425 17.3777 0.551858C8.18156 0.551858 0.686501 8.00942 0.686501 17.1596C0.686501 20.0924 1.46127 22.9413 2.90975 25.4551L0.551758 34.069L9.39425 31.7563C11.8365 33.0802 14.5818 33.7841 17.3777 33.7841C26.5739 33.7841 34.069 26.3265 34.069 17.1764C34.069 12.7353 32.3342 8.56246 29.1846 5.4286ZM17.3777 30.9687C14.885 30.9687 12.4428 30.2983 10.3038 29.0414L9.79847 28.7398L4.54351 30.114L5.94146 25.0194L5.60461 24.4999C4.2197 22.2994 3.48433 19.7559 3.48241 17.1596C3.48241 9.55121 9.71426 3.35054 17.3609 3.35054C21.0663 3.35054 24.5528 4.79178 27.1634 7.40611C28.4561 8.68641 29.4805 10.2093 30.1773 11.8864C30.8741 13.5635 31.2293 15.3616 31.2226 17.1764C31.2562 24.7848 25.0244 30.9687 17.3777 30.9687ZM24.9907 20.6454C24.5696 20.4443 22.5148 19.4388 22.1443 19.2879C21.7569 19.1539 21.4874 19.0868 21.2011 19.489C20.9147 19.908 20.1231 20.8465 19.8873 21.1146C19.6515 21.3995 19.3989 21.433 18.9778 21.2152C18.5567 21.0141 17.2093 20.5616 15.6261 19.1539C14.3797 18.0478 13.5544 16.6904 13.3018 16.2714C13.066 15.8524 13.2681 15.6346 13.4871 15.4167C13.6723 15.2324 13.9081 14.9307 14.1102 14.6961C14.3124 14.4615 14.3966 14.2771 14.5313 14.009C14.6661 13.7241 14.5987 13.4895 14.4976 13.2884C14.3966 13.0873 13.5544 11.0427 13.2176 10.2048C12.8807 9.40038 12.527 9.50093 12.2744 9.48418H11.4659C11.1796 9.48418 10.7417 9.58473 10.3543 10.0037C9.98374 10.4227 8.9058 11.4282 8.9058 13.4727C8.9058 15.5173 10.4048 17.4948 10.6069 17.7629C10.809 18.0478 13.5544 22.2374 17.7314 24.0306C18.7252 24.4663 19.4999 24.7177 20.1063 24.9021C21.1 25.2205 22.0095 25.1702 22.7338 25.0696C23.5422 24.9523 25.2097 24.0641 25.5465 23.0921C25.9002 22.1201 25.9002 21.299 25.7823 21.1146C25.6644 20.9303 25.4118 20.8465 24.9907 20.6454Z" fill="white"/>
</svg>
