<svg width="180" height="340" viewBox="0 0 180 340" fill="none" xmlns="http://www.w3.org/2000/svg">
<path fill-rule="evenodd" clip-rule="evenodd" d="M126.108 82.3067C126.108 82.3067 99.742 77.9999 82.8447 77.5582C67.5346 77.1581 51.1883 83.8895 51.1883 83.8895C51.1883 83.8895 39.2731 88.7769 34.8324 93.3865C32.1734 96.1466 27.9735 99.1901 27.9735 99.1901C27.9735 99.1901 10.3024 86.2196 4.75882 75.4478C1.07692 68.2934 -0.126665 63.4438 0.0103564 55.3987C0.176791 45.6267 2.0943 39.5006 7.92446 31.6564C15.197 21.8717 22.9172 18.4087 34.8324 15.8282C42.8874 14.0838 55.9367 15.8282 55.9367 15.8282L65.4336 6.85889L75.4582 2.11043L87.0655 0L100.256 2.11043C100.256 2.11043 114.776 8.1188 120.305 15.8282C126.922 25.0555 126.108 44.319 126.108 44.319V82.3067ZM21.6422 59.6196C25.2409 67.1167 35.8876 75.4478 35.8876 75.4478L23.7527 87.0552C23.7527 87.0552 15.1075 80.0542 12.1453 73.865C9.68508 68.7245 9.37137 65.305 8.97968 59.6196C8.49486 52.5825 8.61092 48.2847 11.0901 41.681C13.1397 36.2216 19.0042 29.0184 19.0042 29.0184C19.0042 29.0184 17.7808 36.7216 17.949 41.681C18.1915 48.8293 18.5471 53.1716 21.6422 59.6196Z" fill="black"/>
<path d="M145.102 105.521C145.102 105.521 144.955 103.903 145.102 102.883C145.792 98.1047 150.817 97.9695 154.599 94.9689C161.186 89.7435 166.853 88.9463 172.01 82.3064C178.972 73.3432 180.372 65.6836 179.924 54.3432C179.532 44.3817 178.163 37.9174 172.01 30.0733C164.333 20.2853 155.866 17.3453 143.52 15.8279C139.02 15.2749 131.912 15.8279 131.912 15.8279C131.912 15.8279 135.608 29.5656 131.912 36.9321C130.267 40.2111 126.109 44.3186 126.109 44.3186L100.783 68.061C100.783 68.061 95.5673 72.9444 112.918 78.0855C127.164 82.3064 132.324 92.0843 131.912 94.9689L145.102 105.521Z" fill="black"/>
<path d="M42.7472 200.491L1.0662 226.871L17.422 240.589L2.12141 255.362L13.7288 274.356C13.7288 274.356 25.4485 289.454 32.195 297.57C46.3702 314.625 70.1827 339.779 70.1827 339.779C70.1827 339.779 49.0784 285.436 45.9128 261.166C42.7472 236.896 42.7472 200.491 42.7472 200.491Z" fill="black"/>
<path d="M136.728 200.491L178.091 226.871L161.86 240.589L177.043 255.362L165.525 274.356C165.525 274.356 153.894 289.454 147.199 297.57C133.132 314.625 109.502 339.779 109.502 339.779C109.502 339.779 130.445 285.436 133.586 261.166C136.728 236.896 136.728 200.491 136.728 200.491Z" fill="black"/>
<path d="M90.2307 308.122C88.1094 308.122 86.9157 308.669 85.4823 310.233C84.237 311.591 83.3718 313.138 83.3718 314.981C83.3718 316.824 83.6444 317.906 84.9547 319.202C86.3974 320.629 88.2118 321.517 90.2307 321.312C91.8834 321.145 93.2912 320.391 94.4516 319.202C95.7389 317.883 96.3885 316.816 96.562 314.981C96.722 313.289 96.4752 312.156 95.5068 310.76C94.2978 309.017 92.3521 308.122 90.2307 308.122Z" fill="black"/>
<path d="M90.2307 278.049C88.1094 278.049 86.9157 278.595 85.4823 280.159C84.237 281.518 83.3718 283.065 83.3718 284.908C83.3718 286.75 83.6444 287.832 84.9547 289.128C86.3974 290.555 88.2118 291.443 90.2307 291.239C91.8834 291.071 93.2912 290.317 94.4516 289.128C95.7389 287.81 96.3885 286.742 96.562 284.908C96.722 283.216 96.4752 282.083 95.5068 280.687C94.2978 278.944 92.3521 278.049 90.2307 278.049Z" fill="black"/>
<path d="M90.2307 247.975C88.1094 247.975 86.9157 248.522 85.4823 250.085C84.237 251.444 83.3718 252.991 83.3718 254.834C83.3718 256.677 83.6444 257.759 84.9547 259.055C86.3974 260.482 88.2118 261.37 90.2307 261.165C91.8834 260.998 93.2912 260.243 94.4516 259.055C95.7389 257.736 96.3885 256.669 96.562 254.834C96.722 253.142 96.4752 252.009 95.5068 250.613C94.2978 248.87 92.3521 247.975 90.2307 247.975Z" fill="black"/>
<path d="M90.2307 217.901C88.1094 217.901 86.9157 218.448 85.4823 220.012C84.237 221.37 83.3718 222.917 83.3718 224.76C83.3718 226.603 83.6444 227.685 84.9547 228.981C86.3974 230.408 88.2118 231.296 90.2307 231.092C91.8834 230.924 93.2912 230.17 94.4516 228.981C95.7389 227.662 96.3885 226.595 96.562 224.76C96.722 223.069 96.4752 221.936 95.5068 220.54C94.2978 218.796 92.3521 217.901 90.2307 217.901Z" fill="black"/>
<path d="M62.7951 179.386V206.822L66.4884 209.46L89.7031 196.27V189.411L65.9608 176.748L62.7951 179.386Z" fill="black"/>
<path d="M118.193 179.386V206.822L114.283 209.46L89.7027 196.27V189.411L114.842 176.748L118.193 179.386Z" fill="black"/>
<path fill-rule="evenodd" clip-rule="evenodd" d="M132.966 95.4958C132.966 95.4958 106.063 85.7513 88.1197 85.4712C67.8742 85.1553 38.5246 101.301 38.5246 101.301V137.177C38.5246 137.177 51.1679 144.981 60.1565 147.729C70.6663 150.942 75.4571 152.477 88.1197 152.477C102.893 152.477 109.223 151.61 121.887 147.729C131.051 144.921 144.046 137.177 144.046 137.177L145.101 105.52L132.966 95.4958ZM134.021 138.232C134.021 138.232 106.234 145.712 88.1197 145.091C72.1676 144.544 48.0215 137.177 48.0215 137.177C48.0215 137.177 72.1599 129.489 88.1197 129.263C106.383 129.004 134.021 138.232 134.021 138.232Z" fill="black"/>
</svg>
