
<svg version="1.1" id="Icons" xmlns="http://www.w3.org/2000/svg" xmlns:xlink="http://www.w3.org/1999/xlink" viewBox="0 0 32 32" xml:space="preserve" width="24px" height="24px" fill="#000000" stroke="#000000">

<g id="SVGRepo_bgCarrier" stroke-width="0"/>

<g id="SVGRepo_tracerCarrier" stroke-linecap="round" stroke-linejoin="round"/>

<g id="SVGRepo_iconCarrier"> <style type="text/css"> .st0{fill:none;stroke:#000000;stroke-width:0.8;stroke-linecap:round;stroke-linejoin:round;stroke-miterlimit:10;} </style> <path class="st0" d="M8,9h15c0.6,0,1,0.4,1,1v18c0,0.6-0.4,1-1,1H9c-0.6,0-1-0.4-1-1V9l11.6-5.3C20.2,3.3,21,3.8,21,4.6V9"/> <path class="st0" d="M17.1,29l-0.4-3.3c-0.1-1.3,0.3-2.6,1.2-3.5c0.7-0.7,1.1-2,1.1-3.7V13"/> <path class="st0" d="M13,13v5.5c0,1.7,0.4,2.9,1.1,3.7c0.9,1,1.3,2.2,1.2,3.5L14.9,29"/> <line class="st0" x1="16" y1="19" x2="16" y2="13"/> </g>

</svg>